<svg viewBox="0 0 396 94" data-background-color="#97978d" preserveAspectRatio="xMidYMid meet" height="356" width="1500" xmlns="http://www.w3.org/2000/svg"> <g id="tight-bounds" transform="matrix(1,0,0,1,0.2400000000000091,0.0746433541636975)"> <svg viewBox="0 0 395.52 93.85071329167262" height="93.85071329167262" width="395.52"> <g> <svg viewBox="0 0 547.6728310821582 129.95420167761498" height="93.85071329167262" width="395.52"> <g transform="matrix(1,0,0,1,152.15283108215812,17.96038532592219)"> <svg viewBox="0 0 395.52 94.0334310257706" height="94.0334310257706" width="395.52"> <g id="textblocktransform"> <svg viewBox="0 0 395.52 94.0334310257706" height="94.0334310257706" width="395.52" id="textblock"> <g> <svg viewBox="0 0 395.52 94.0334310257706" height="94.0334310257706" width="395.52"> <g transform="matrix(1,0,0,1,0,0)"> <svg width="395.52" viewBox="2.35 -37.1 197.88 47.050000000000004" height="94.0334310257706" data-palette-color="#ffffff"> <path d="M15.35 0.3Q11.45 0.3 7.88-0.95 4.3-2.2 2.35-4.25L2.35-4.25 3.8-7.1Q5.7-5.2 8.85-4.03 12-2.85 15.35-2.85L15.35-2.85Q20.05-2.85 22.4-4.58 24.75-6.3 24.75-9.05L24.75-9.05Q24.75-11.15 23.48-12.4 22.2-13.65 20.35-14.33 18.5-15 15.2-15.8L15.2-15.8Q11.25-16.8 8.9-17.73 6.55-18.65 4.88-20.55 3.2-22.45 3.2-25.7L3.2-25.7Q3.2-28.35 4.6-30.53 6-32.7 8.9-34 11.8-35.3 16.1-35.3L16.1-35.3Q19.1-35.3 21.98-34.48 24.85-33.65 26.95-32.2L26.95-32.2 25.7-29.25Q23.5-30.7 21-31.43 18.5-32.15 16.1-32.15L16.1-32.15Q11.5-32.15 9.18-30.38 6.85-28.6 6.85-25.8L6.85-25.8Q6.85-23.7 8.13-22.43 9.4-21.15 11.33-20.48 13.25-19.8 16.5-19L16.5-19Q20.35-18.05 22.73-17.13 25.1-16.2 26.75-14.33 28.4-12.45 28.4-9.25L28.4-9.25Q28.4-6.6 26.98-4.42 25.55-2.25 22.6-0.98 19.65 0.3 15.35 0.3L15.35 0.3ZM49.25-26.5Q52.95-26.5 55.95-24.83 58.95-23.15 60.65-20.1 62.35-17.05 62.35-13.15L62.35-13.15Q62.35-9.2 60.65-6.15 58.95-3.1 55.97-1.43 53 0.25 49.25 0.25L49.25 0.25Q46.05 0.25 43.47-1.07 40.9-2.4 39.25-4.95L39.25-4.95 39.25 9.7 35.7 9.7 35.7-26.3 39.1-26.3 39.1-21.1Q40.7-23.7 43.32-25.1 45.95-26.5 49.25-26.5L49.25-26.5ZM49-2.9Q51.75-2.9 54-4.17 56.25-5.45 57.52-7.8 58.8-10.15 58.8-13.15L58.8-13.15Q58.8-16.15 57.52-18.48 56.25-20.8 54-22.1 51.75-23.4 49-23.4L49-23.4Q46.2-23.4 43.97-22.1 41.75-20.8 40.47-18.48 39.2-16.15 39.2-13.15L39.2-13.15Q39.2-10.15 40.47-7.8 41.75-5.45 43.97-4.17 46.2-2.9 49-2.9L49-2.9ZM87.44-26.3L90.94-26.3 77.8 3.15Q76.19 6.85 74.09 8.4 71.99 9.95 69.05 9.95L69.05 9.95Q67.14 9.95 65.49 9.35 63.84 8.75 62.64 7.55L62.64 7.55 64.3 4.9Q66.3 6.9 69.09 6.9L69.09 6.9Q70.89 6.9 72.17 5.9 73.44 4.9 74.55 2.5L74.55 2.5 75.69-0.05 63.94-26.3 67.64-26.3 77.55-3.95 87.44-26.3ZM95.94 0L95.94-37.1 99.49-37.1 99.49 0 95.94 0ZM109.39 0L109.39-26.3 112.94-26.3 112.94 0 109.39 0ZM111.19-32.05Q110.09-32.05 109.34-32.8 108.59-33.55 108.59-34.6L108.59-34.6Q108.59-35.6 109.34-36.35 110.09-37.1 111.19-37.1L111.19-37.1Q112.29-37.1 113.04-36.38 113.79-35.65 113.79-34.65L113.79-34.65Q113.79-33.55 113.04-32.8 112.29-32.05 111.19-32.05L111.19-32.05ZM136.24-26.5Q141.19-26.5 144.11-23.63 147.04-20.75 147.04-15.25L147.04-15.25 147.04 0 143.49 0 143.49-14.9Q143.49-19 141.44-21.15 139.39-23.3 135.59-23.3L135.59-23.3Q131.34-23.3 128.86-20.78 126.39-18.25 126.39-13.8L126.39-13.8 126.39 0 122.84 0 122.84-26.3 126.24-26.3 126.24-21.45Q127.69-23.85 130.26-25.18 132.84-26.5 136.24-26.5L136.24-26.5ZM179.74-13.15L179.69-12.05 157.69-12.05Q157.99-7.95 160.84-5.43 163.69-2.9 168.03-2.9L168.03-2.9Q170.49-2.9 172.54-3.78 174.59-4.65 176.09-6.35L176.09-6.35 178.09-4.05Q176.34-1.95 173.71-0.85 171.09 0.25 167.94 0.25L167.94 0.25Q163.89 0.25 160.76-1.48 157.64-3.2 155.89-6.25 154.14-9.3 154.14-13.15L154.14-13.15Q154.14-17 155.81-20.05 157.49-23.1 160.41-24.8 163.34-26.5 166.99-26.5L166.99-26.5Q170.64-26.5 173.54-24.8 176.44-23.1 178.09-20.08 179.74-17.05 179.74-13.15L179.74-13.15ZM166.99-23.45Q163.19-23.45 160.61-21.03 158.03-18.6 157.69-14.7L157.69-14.7 176.34-14.7Q175.99-18.6 173.41-21.03 170.84-23.45 166.99-23.45L166.99-23.45ZM190.38-21.15Q191.63-23.8 194.11-25.15 196.58-26.5 200.23-26.5L200.23-26.5 200.23-23.05 199.38-23.1Q195.23-23.1 192.88-20.55 190.53-18 190.53-13.4L190.53-13.4 190.53 0 186.98 0 186.98-26.3 190.38-26.3 190.38-21.15Z" opacity="1" transform="matrix(1,0,0,1,0,0)" class="wordmark-text-0" data-fill-palette-color="primary" id="text-0" style="fill: rgb(24, 33, 109);"/> </svg> </g> </svg> </g> </svg> </g> </svg> </g> <g> <svg viewBox="0 0 129.9537948193183 129.95420167761498" height="129.95420167761498" width="129.9537948193183"> <g> <svg xmlns="http://www.w3.org/2000/svg" version="1.1" x="0" y="0" viewBox="10.07425 10.073749999999997 79.85199999999998 79.85225" enable-background="new 0 0 100 100" height="129.95420167761498" width="129.9537948193183" class="icon-icon-0" data-fill-palette-color="accent" id="icon-0"> <g fill="#ffffff" data-fill-palette-color="accent"> <path fill="none" d="M26.032 26.031c-9.711 9.71-9.711 25.453 0 35.163 9.711 9.713 25.455 9.713 35.166 0 9.71-9.71 9.71-25.452 0.001-35.163C51.485 16.32 35.742 16.32 26.032 26.031zM58.244 53.829c0 2.683-2.184 4.865-4.865 4.865h-3.086v3.784h-2.117v-3.784h-3.38v3.784h-2.117v-3.784H39.21v3.784h-2.117v-3.784h-3.086c-2.683 0-4.866-2.183-4.866-4.865V34.458c0-2.683 2.183-4.865 4.866-4.865h3.086v-3.965h2.117v3.965h3.469v-3.965h2.117v3.965h3.38v-3.965h2.117v3.965h3.086c2.682 0 4.865 2.182 4.865 4.865V53.829z"/> <path fill="none" d="M53.379 30.673H34.007c-2.086 0-3.784 1.698-3.784 3.784v19.372c0 2.086 1.698 3.784 3.784 3.784h19.372c2.087 0 3.784-1.698 3.784-3.784V34.458C57.163 32.371 55.466 30.673 53.379 30.673zM54.437 50.563c0 2.388-1.937 4.324-4.324 4.324h-12.84c-2.388 0-4.325-1.937-4.325-4.324v-12.84c0-2.389 1.937-4.325 4.325-4.325h12.84c2.388 0 4.324 1.937 4.324 4.325V50.563z"/> <path d="M88.064 79.066L71.396 62.4c8.845-13.048 7.494-30.943-4.064-42.502-13.1-13.099-34.336-13.099-47.435 0C6.8 32.995 6.8 54.232 19.897 67.329 31.458 78.89 49.353 80.239 62.4 71.395l16.668 16.668c2.483 2.484 6.512 2.484 8.996 0C90.547 85.577 90.547 81.551 88.064 79.066zM61.197 61.194c-9.711 9.713-25.454 9.713-35.166 0-9.711-9.71-9.711-25.453 0-35.163 9.71-9.711 25.454-9.711 35.167 0C70.907 35.742 70.907 51.484 61.197 61.194z" data-fill-palette-color="accent" style="fill: rgb(46, 24, 106);"/> <path d="M50.112 33.398h-12.84c-2.388 0-4.325 1.937-4.325 4.325v12.84c0 2.388 1.937 4.324 4.325 4.324h12.84c2.388 0 4.324-1.937 4.324-4.324v-12.84C54.437 35.335 52.5 33.398 50.112 33.398z" data-fill-palette-color="accent" style="fill: rgb(46, 24, 106);"/> <path d="M53.379 29.592h-3.086v-3.965h-2.117v3.965h-3.38v-3.965h-2.117v3.965H39.21v-3.965h-2.117v3.965h-3.086c-2.683 0-4.866 2.182-4.866 4.865v19.372c0 2.683 2.183 4.865 4.866 4.865h3.086v3.784h2.117v-3.784h3.469v3.784h2.117v-3.784h3.38v3.784h2.117v-3.784h3.086c2.682 0 4.865-2.183 4.865-4.865V34.458C58.244 31.774 56.061 29.592 53.379 29.592zM57.163 53.829c0 2.086-1.697 3.784-3.784 3.784H34.007c-2.086 0-3.784-1.698-3.784-3.784V34.458c0-2.086 1.698-3.784 3.784-3.784h19.372c2.087 0 3.784 1.698 3.784 3.784V53.829z" data-fill-palette-color="accent" style="fill: rgb(46, 24, 106);"/> </g> </svg> </g> </svg> </g> </svg> </g> <defs/> </svg> <rect width="395.52" height="93.85071329167262" fill="none" stroke="none" visibility="hidden"/> </g> </svg>